<svg width="318" height="279" xmlns="http://www.w3.org/2000/svg" xmlns:xlink="http://www.w3.org/1999/xlink"><defs><path d="M310.34 153.5l-62.43 108.131a30 30 0 0 1-25.98 15H97.07a30 30 0 0 1-25.98-15L8.66 153.5a30 30 0 0 1 0-30L71.09 15.369a30 30 0 0 1 25.98-15h124.86a30 30 0 0 1 25.98 15L310.34 123.5a30 30 0 0 1 0 30z" id="a"/></defs><g fill="none" fill-rule="evenodd"><g transform="translate(-1 1)"><mask id="b" fill="#fff"><use xlink:href="#a"/></mask><g mask="url(#b)" fill="#FFE01C" fill-rule="nonzero"><path transform="translate(-58 -13)" d="M0.5 0H455.5V303H0.5z"/></g></g><g transform="translate(105 46)" fill="#000"><path d="M91.653 0H13.347C5.987 0 0 6.013 0 13.403v156.194C0 176.987 5.987 183 13.347 183h78.306c7.36 0 13.347-6.013 13.347-13.403V13.403C105 6.013 99.013 0 91.653 0zm8.008 145.47H24.025c-1.474 0-2.67 1.2-2.67 2.681 0 1.48 1.196 2.681 2.67 2.681h75.636v18.765c0 4.434-3.592 8.042-8.008 8.042H13.347c-4.416 0-8.008-3.608-8.008-8.042v-18.765h8.008c1.475 0 2.67-1.2 2.67-2.68 0-1.481-1.195-2.681-2.67-2.681H5.34V26.807h94.322V145.47zm0-124.025H5.339v-8.042c0-4.434 3.592-8.042 8.008-8.042h78.306c4.416 0 8.008 3.608 8.008 8.042v8.042z" fill-rule="nonzero"/><path d="M63.333 10H52.667C51.194 10 50 11.343 50 13s1.194 3 2.667 3h10.666C64.806 16 66 14.657 66 13s-1.194-3-2.667-3zM53 157c-4.411 0-8 3.589-8 8s3.589 8 8 8 8-3.589 8-8-3.589-8-8-8zm0 10.667A2.67 2.67 0 0 1 50.333 165 2.67 2.67 0 0 1 53 162.333 2.67 2.67 0 0 1 55.667 165 2.67 2.67 0 0 1 53 167.667z" fill-rule="nonzero"/><circle fill-rule="nonzero" cx="43" cy="13" r="3"/><text font-family="Century" font-size="120"><tspan x="29" y="128">?</tspan></text></g></g></svg>