<svg width="318" height="279" xmlns="http://www.w3.org/2000/svg" xmlns:xlink="http://www.w3.org/1999/xlink"><defs><path d="M310.34 153.5l-62.43 108.131a30 30 0 0 1-25.98 15H97.07a30 30 0 0 1-25.98-15L8.66 153.5a30 30 0 0 1 0-30L71.09 15.369a30 30 0 0 1 25.98-15h124.86a30 30 0 0 1 25.98 15L310.34 123.5a30 30 0 0 1 0 30z" id="a"/></defs><g fill="none" fill-rule="evenodd"><g transform="translate(-1 1)"><mask id="b" fill="#fff"><use xlink:href="#a"/></mask><g mask="url(#b)" fill="#FFE01C" fill-rule="nonzero"><path transform="translate(-58 -13)" d="M0.5 0H455.5V303H0.5z"/></g></g><g transform="translate(62 48)" fill="#000" fill-rule="nonzero"><path d="M183.35 83.5h-3.217V16.058C180.123 7.194 172.928.01 164.05 0H28.95c-8.878.01-16.073 7.194-16.083 16.058V64.23H9.65C4.32 64.23 0 68.544 0 73.865v83.5C0 162.687 4.32 167 9.65 167h122.233a3.214 3.214 0 0 0 3.217-3.212c-.01-8.863-7.205-16.047-16.083-16.057h-9.65v-19.27h38.6v28.904c0 5.322 4.32 9.635 9.65 9.635h25.733c5.33 0 9.65-4.313 9.65-9.635v-64.23c0-5.322-4.32-9.635-9.65-9.635zM70.767 157.365a3.214 3.214 0 0 1-3.217 3.212H9.65a3.214 3.214 0 0 1-3.217-3.212v-3.211h64.334v3.211zm0-9.634H6.433V73.865a3.214 3.214 0 0 1 3.217-3.211h57.9a3.214 3.214 0 0 1 3.217 3.211v73.866zm48.25 6.423a9.668 9.668 0 0 1 9.1 6.423H76.608a9.51 9.51 0 0 0 .592-3.212v-3.211h41.817zM77.2 147.73v-19.27h6.433v19.27H77.2zm12.867 0v-19.27h12.866v19.27H90.067zm57.9-25.693H77.2V102.77h70.767v19.27zm0-28.903v3.211H77.2v-22.48a9.507 9.507 0 0 0-1.1-4.372c.048-.044.112-.057.158-.106l31.845-31.794a3.208 3.208 0 0 0-.08-4.54 3.22 3.22 0 0 0-4.469 0L71.71 64.846c-.077.08-.11.183-.177.267a9.542 9.542 0 0 0-3.982-.883H19.3V16.058c0-5.321 4.32-9.635 9.65-9.635h135.1c5.33 0 9.65 4.314 9.65 9.635V83.5h-16.083c-5.33 0-9.65 4.313-9.65 9.635zm38.6 64.23a3.214 3.214 0 0 1-3.217 3.212h-25.733a3.214 3.214 0 0 1-3.217-3.212v-3.211h32.167v3.211zm0-9.634H154.4V93.135a3.214 3.214 0 0 1 3.217-3.212h25.733a3.214 3.214 0 0 1 3.217 3.212v54.596z"/><path d="M37.838 102.936a3.134 3.134 0 0 0-4.469 0l-13.404 13.566a3.225 3.225 0 0 0-.078 4.522 3.133 3.133 0 0 0 4.546 0l13.405-13.566c.564-.99-.57-2.87 0-4.522zm20.184-.037a3.205 3.205 0 0 0-4.452 0l-13.592 13.592a3.204 3.204 0 1 0 4.53 4.53l13.593-13.591a3.204 3.204 0 0 0-.079-4.53zm69.003-71.003a3.194 3.194 0 0 0-4.437 0L90.975 63.51a3.193 3.193 0 1 0 4.515 4.515l31.613-31.613a3.193 3.193 0 0 0-.078-4.516zm50.963 79.034a3.314 3.314 0 0 0-4.604 0l-9.372 9.372a3.314 3.314 0 1 0 4.686 4.686l9.372-9.372a3.314 3.314 0 0 0-.082-4.686zM96.008 108h-.03A2.997 2.997 0 0 0 93 111.015 2.996 2.996 0 0 0 96.008 114 2.996 2.996 0 0 0 99 111c0-1.657-1.34-3-2.992-3zm6.825-96H90.167C88.417 12 87 13.343 87 15s1.418 3 3.167 3h12.666c1.75 0 3.167-1.343 3.167-3s-1.418-3-3.167-3z"/></g></g></svg>